<?xml version="1.0" encoding="UTF-8" standalone="no"?>
<!-- Created with Inkscape (http://www.inkscape.org/) -->

<svg
   version="1.1"
   id="svg48"
   width="377.66284"
   height="539.65369"
   viewBox="0 0 377.66285 539.65369"
   sodipodi:docname="rock_paper_scissors-09.eps"
   inkscape:export-filename="../scissors.svg"
   inkscape:export-xdpi="96"
   inkscape:export-ydpi="96"
   xmlns:inkscape="http://www.inkscape.org/namespaces/inkscape"
   xmlns:sodipodi="http://sodipodi.sourceforge.net/DTD/sodipodi-0.dtd"
   xmlns="http://www.w3.org/2000/svg"
   xmlns:svg="http://www.w3.org/2000/svg">
  <defs
     id="defs52" />
  <sodipodi:namedview
     id="namedview50"
     pagecolor="#ffffff"
     bordercolor="#000000"
     borderopacity="0.25"
     inkscape:showpageshadow="2"
     inkscape:pageopacity="0.0"
     inkscape:pagecheckerboard="0"
     inkscape:deskcolor="#d1d1d1"
     showgrid="false" />
  <g
     id="g56"
     inkscape:groupmode="layer"
     inkscape:label="Page 1"
     transform="matrix(1.3333333,0,0,-1.3333333,-1338.3766,560.62881)">
    <g
       id="g58"
       transform="scale(0.1)">
      <path
         d="m 12864,2574.13 c -10.4,193.62 -19.3,431.79 -172.5,572.19 -89.3,81.93 -207.1,133.38 -326.8,157.56 -6.9,60.01 -18.6,119.88 -31.9,178.28 -18.5,82 -42.5,162.77 -71.7,241.61 -24.1,65.32 -51.8,128.03 -103.7,176.41 -103.8,96.75 -262,113.62 -398.3,80.23 -60.7,107.55 -161.2,197.11 -284,218.35 -140.2,24.23 -302.2,-26.51 -401.1,-133.19 -76.9,30.71 -163.4,31.7 -245.1,16.43 -103.7,-19.38 -219.2,-62.27 -271,-160.71 -33.1,-62.79 -45.8,-136.05 -45.8,-209.6 -44.4,7.04 -93.3,4.46 -142.8,-2.53 -116.4,-16.41 -244.4,-56.28 -301.2,-169.23 -47.5,-94.32 -26.1,-217.23 -21.4,-319.03 6.7,-144.55 13.4,-289.09 16.8,-433.77 6.3,-270.92 21.8,-540.25 60.5,-808.74 17.7,-123.11 39.5,-246.43 74.1,-366.05 31.8,-109.98 75.4,-217.04 117.3,-323.44 67.1,-170.18 137.4,-339.177 210,-507.119 -34.3,-111.543 -57.7,-240.644 -16.5,-351.961 40.6,-109.648 135.1,-156.011 241.3,-184.554 228.9,-61.504 478.2,-84.512 714.8,-85.266 104.3,-0.285 208.5,-6.383 312.8,0.797 137.4,9.469 272.5,38.027 402.1,84.879 109.2,39.496 212.6,95.019 262.5,205.715 36.6,81.402 37.9,170.449 20.4,256.836 -7.4,36.32 -18.7,72.976 -33.3,107.753 122.9,211.72 236.4,430.14 322.2,659.71 56.9,152.26 100.3,311.28 108.3,474.31 10.1,207.57 15.1,416.52 4,624.13 z m -154.2,-627.98 c -12.4,-245.12 -121.6,-501.97 -232.9,-726.96 -43.6,-88.36 -90.2,-175.29 -138.8,-261.073 -23.7,-41.984 -73.5,-97.984 -66.8,-148.086 1.9,-13.886 8,-24.89 13.6,-37.164 2.2,-4.812 4.3,-9.613 6.5,-14.441 0.6,-1.563 1.3,-3.457 2.2,-6.106 6.7,-19.031 13.3,-37.957 18.4,-57.511 11,-42.543 16.9,-80.727 10.8,-124.746 -22.4,-162.407 -235.6,-205.317 -372.9,-234.903 -160.9,-34.687 -321.7,-25.605 -484.9,-25.16 -148.7,0.473 -298.3,13.453 -445.4,35.031 -71.7,10.52 -143.3,22.934 -213.6,40.731 -50.4,12.773 -103,20.711 -135.6,58.258 -40.4,46.73 -36.1,123 -28.2,179.921 8.9,64.313 52.8,139.832 26.4,201.684 -34.2,79.766 -68.3,159.531 -101.6,239.655 -115,276.74 -231.3,551.67 -282,848.53 -58.7,343.87 -63.6,689.45 -76.5,1036.91 -3.6,96.68 -8.3,193.31 -12.7,289.96 -2.9,63.29 -13.6,133.74 -4.9,196.82 10.2,74.83 89.8,103.08 154.2,116.43 41.3,8.57 163,41.52 186.9,-12.4 34.4,-319.85 68.2,-640.42 88,-961.53 5.9,-95.9 155.9,-96.57 150,0 -20.1,327.29 -54.9,654.02 -90,980 -0.1,0.62 -0.2,1.22 -0.3,1.83 -0.2,5.75 -0.9,11.78 -2.4,18.11 -8.3,36.19 -8.6,42.59 -11.3,75.81 -4.7,56.85 -5.9,117.71 13.8,172.01 24.4,66.9 91.4,86.11 157.6,102.68 62.4,15.61 127.5,18.24 185.5,-6.7 18.5,-295.28 38.4,-590.53 61.9,-885.45 7.5,-94.5 15.3,-189.01 25.2,-283.29 4.2,-40.28 31.4,-75 75,-75 37.3,0 79.3,34.46 75,75 -38.5,366.06 -59.2,734.41 -82.8,1101.66 -2,30.38 -3.9,60.76 -5.8,91.14 15.2,16.41 30.3,32.77 48.1,46.2 62.9,47.29 149.9,71.84 227.9,57.92 62.6,-11.18 116,-53.74 152.4,-101.69 15.3,-20.09 28.5,-42.16 40,-64.59 1.7,-3.2 3.2,-6.46 4.7,-9.73 -12.8,-371.01 -20.3,-745.46 5.5,-1115.91 6.7,-95.76 156.7,-96.5 150,0 -24.9,356.59 -18.8,716.87 -6.9,1074.24 89.9,22.75 196.4,22.89 265.8,-47.5 41.3,-41.81 57.9,-101.47 76.2,-155.65 22.4,-66.42 41.2,-134.09 56.2,-202.57 12.3,-56.43 21.8,-104.84 26.5,-157.5 -77,-78.55 -109.8,-208.06 -134.5,-308.63 -56.5,-229.72 -80.1,-468.37 -98.8,-704.17 -301.8,-94.45 -538.6,-368.08 -616.8,-668.28 -24.4,-93.48 120.2,-133.36 144.6,-39.88 50.1,192.15 163.4,358.32 329.5,468.44 29.5,19.57 60.1,37.48 91.6,53.64 14,7.2 28.3,13.89 42.6,20.52 2.1,0.97 12,5.21 14.3,6.22 3.6,1.47 7.2,2.96 10.8,4.34 24.2,9.21 48.6,18.41 73.8,24.46 33.9,8.14 52.6,39.91 55.1,72.32 18.3,238.33 39.6,479.57 95.5,712.57 8.7,36.44 18.5,72.68 30,108.35 4.9,15.25 10.1,30.4 15.8,45.39 2.2,5.64 4.4,11.25 6.7,16.84 1.2,2.69 4.1,9.51 4.9,11.09 10.2,21.43 21.6,41.63 34.4,61.58 0.6,1.01 1.2,1.85 1.6,2.6 0.5,0.5 0.9,1.03 1.3,1.54 6.8,-1.36 13.6,-2.77 20.4,-4.33 45.6,-10.56 91.2,-24.42 133.6,-44.32 51.5,-24.22 100,-54.95 137.9,-97.96 41.4,-47.02 57.5,-104.48 70.2,-164.59 32.3,-152.14 36,-310.79 37.3,-465.76 1.2,-145.56 -2.4,-291.46 -9.8,-436.85"
         style="fill:#231f20;fill-opacity:1;fill-rule:nonzero;stroke:none"
         id="path62"
         inkscape:export-filename="../paper.svg"
         inkscape:export-xdpi="96"
         inkscape:export-ydpi="96" />
    </g>
  </g>
</svg>
