<?xml version="1.0" encoding="UTF-8" standalone="no"?>
<!-- Created with Inkscape (http://www.inkscape.org/) -->

<svg
   version="1.1"
   id="svg48"
   width="402.84418"
   height="435.8559"
   viewBox="0 0 402.84419 435.8559"
   sodipodi:docname="rock_paper_scissors-09.eps"
   inkscape:export-filename="../scissors.svg"
   inkscape:export-xdpi="96"
   inkscape:export-ydpi="96"
   xmlns:inkscape="http://www.inkscape.org/namespaces/inkscape"
   xmlns:sodipodi="http://sodipodi.sourceforge.net/DTD/sodipodi-0.dtd"
   xmlns="http://www.w3.org/2000/svg"
   xmlns:svg="http://www.w3.org/2000/svg">
  <defs
     id="defs52" />
  <sodipodi:namedview
     id="namedview50"
     pagecolor="#ffffff"
     bordercolor="#000000"
     borderopacity="0.25"
     inkscape:showpageshadow="2"
     inkscape:pageopacity="0.0"
     inkscape:pagecheckerboard="0"
     inkscape:deskcolor="#d1d1d1"
     showgrid="false" />
  <g
     id="g56"
     inkscape:groupmode="layer"
     inkscape:label="Page 1"
     transform="matrix(1.3333333,0,0,-1.3333333,-714.34465,454.26149)">
    <g
       id="g58"
       transform="scale(0.1)">
      <path
         d="m 7952.9,852.871 c 147.81,241.469 388.83,419.239 422.64,719.079 11.33,100.57 -8.51,203.6 -20.4,303.33 -19.38,162.57 -30.57,329.39 -63.71,489.79 -23.95,115.92 -74.03,215.66 -177.71,278 -85.42,51.36 -185.11,82.51 -283.12,104.66 -14.24,81 -27.38,162.21 -39.87,243.48 -15.94,103.67 -24.91,216.92 -101.63,296.63 -68.48,71.16 -170.47,92.16 -264.37,105.02 -129.62,17.76 -264.43,26.8 -388.42,-23.13 -41.85,-16.85 -83.56,-39.42 -118.26,-69.45 -153.96,56.83 -342.58,21.18 -491.66,-29.78 -89.83,-30.71 -178.17,-85.1 -230.96,-165.27 -125.95,-14.78 -255.63,-44.24 -367.11,-102.98 -138.21,-72.84 -214.57,-224.53 -207.05,-377.32 -64.05,-41.26 -122,-95.26 -165.72,-156.23 -87.27,-121.67 -107.75,-310.4 -94.1,-455.6 14.16,-150.65 76.05,-274.17 166.07,-393.19 24.24,-32.05 49.39,-63.36 75.09,-94.21 0.05,-0.07 0.08,-0.15 0.14,-0.22 5.96,-8.08 12.42,-15.73 19.3,-23.02 10.07,-11.85 20.22,-23.64 30.45,-35.37 14.27,-16.33 28.71,-32.5 42.98,-48.83 5,-5.72 9.87,-11.57 14.91,-17.24 0.55,-0.61 0.95,-1.06 1.38,-1.52 106.73,-149.43 208.3,-303.94 306.1,-459.352 33.38,-53.039 62.71,-115.066 40.61,-178.289 -15.08,-43.136 -36.07,-81.648 -43.79,-127.336 -24.52,-145.085 53.25,-275.421 168.18,-359.765 113.36,-83.192 262.81,-108.899 399.24,-123.965 140.69,-15.539 282.44,-13.688 423.73,-10.793 174.74,3.82 350.02,14.965 521.79,48.977 140.23,27.765 314.82,62.64 403.15,186.445 62.18,87.141 64.44,202.691 39.22,303.117 -4.87,19.422 -11.09,38.473 -18.34,57.137 -5.34,13.75 -14.31,48.047 -26.44,60.488 0.23,0.684 0.43,1.262 0.68,2.121 4.69,16.442 15.59,35.945 27,54.586 z M 7042.71,3206.29 c 9.59,6 19.5,11.62 29.7,16.52 19.11,9.18 39.45,15.79 60.13,21.17 75.34,19.63 153.05,14.72 229.71,6.56 55.73,-5.94 114.36,-13.06 166.8,-33.91 30.63,-12.18 54.41,-30.37 68.02,-53.72 23.3,-40 31.57,-95.5 39.26,-146.95 14.04,-93.89 28.79,-187.7 44.94,-281.26 -128,-69.38 -270.84,-105.41 -416,-111.56 -55.24,-2.34 -114.86,-2.37 -169.72,-16.56 -60.72,91.25 -102.09,198.15 -130.12,302.99 -6.86,25.64 -13.82,52.26 -16.92,78.69 -0.94,8.01 -0.92,17.76 -1.4,26.51 -0.16,2.78 1.26,15.54 0.85,15.23 9.15,47.43 30.52,97.14 51.8,140.41 8.74,7.84 16.56,16.47 25.53,24.1 0.99,0.29 15.57,10.62 17.42,11.78 z m -561.13,-75.48 c 104.06,31.96 241.23,68.39 354.35,39.05 -13.65,-33.78 -25.36,-68.42 -33.12,-102.93 -12.81,-57 -1.38,-117.64 11.94,-173.49 30.06,-126.03 80.79,-259.61 154.86,-368.08 -33.69,-45.28 -51.15,-102.45 -67.37,-157.46 -23.19,-78.58 -40.85,-160.73 -47.8,-242.89 -98.19,-27.88 -203.23,99.21 -254.3,163.75 -66.5,84.07 -124.4,177.32 -181.27,268.06 -50.88,81.17 -106.82,166.54 -137.35,258.03 -17.84,53.47 -8.85,131.28 24.08,182.3 0.46,0.71 7.79,14.98 11.53,21.39 10.05,17.23 6.71,11.89 23.01,28.98 38.54,40.4 88.38,67 141.44,83.29 z m -696.31,-394.56 c 23.67,75.21 79.5,121.16 149.52,151.31 60.66,26.12 126.4,42.18 191.3,54.78 -25.68,-170.61 87.99,-343.23 178.49,-485.34 93.34,-146.57 229.31,-383.63 407.38,-459.04 -38.43,-62.29 -84.75,-129.48 -132.3,-157.29 -42.28,-24.72 -133.44,-34.21 -191.43,-19.24 -18.48,4.77 -35.9,11.26 -52.51,20.7 -7.53,4.29 -14.67,9.07 -21.74,13.99 -0.16,0.14 -0.33,0.29 -0.48,0.43 -12.24,11.62 -23.96,23.53 -35.21,36.14 -147.66,165.51 -272.71,367.17 -398.06,555.64 -36.19,54.44 -72.18,109.02 -107.71,163.9 -0.65,8.08 -1.23,16.16 -1.37,24.3 -0.6,34.29 3.8,66.93 14.12,99.72 z m -232.93,-398.88 c 23.99,57.97 72.43,107.36 125.75,145.32 94.92,-145.61 192.02,-289.93 292.48,-431.72 67.07,-94.65 134.06,-193.12 213.83,-277.71 14.73,-15.63 30.72,-29.39 47.65,-41.49 -8.02,-9.24 -16.17,-18.37 -24.48,-27.36 -44.27,-47.9 -92.45,-94.98 -150.21,-126.34 -56.16,-30.5 -123.86,-34.15 -186.32,-26.75 -33.95,4.03 -94.31,15.8 -125.23,37.38 -70.99,83.26 -141.88,166.5 -191,265.45 -69.42,139.86 -61.6,340.31 -2.47,483.22 z M 7867.91,993.695 c -53.62,-72.851 -123.12,-171.136 -78.11,-264.011 27.03,-55.762 52.83,-122.403 44.53,-195.059 C 7819.03,400.492 7659.45,373.082 7549.8,347.109 7371.61,304.91 7188.36,293.992 7005.84,290 c -113.85,-2.332 -227.79,-3.953 -341.49,3.605 -112.97,7.508 -234.45,21.297 -337.99,70.317 -88.03,41.683 -180.15,129.715 -166.27,235.656 6.08,46.34 22.64,70.363 38.07,110.485 27.09,70.437 21.18,148.835 -5.97,218.312 -33.59,85.975 -93.77,163.475 -144.31,240.125 -50.32,76.34 -100.93,152.51 -152.32,228.14 66.29,-2.21 131.87,7.77 185.85,28.28 119.3,45.35 217.02,145.94 294.94,246.85 79.44,-14.68 164.39,-5.81 240.47,22.45 76.59,28.46 126.46,95.09 173.71,158.62 25.82,34.71 50.29,70.6 73.35,107.28 10.08,-34.67 27.19,-66.91 55.02,-94.79 33.17,-33.24 72.85,-59.55 115.81,-80.85 -110.66,-84.35 -212.75,-186.28 -263.75,-313.03 -39.96,-99.34 -58.71,-208.29 -65.82,-314.74 -6.25,-93.72 -4.96,-201.765 43.33,-285.487 48.22,-83.594 177.89,-8.145 129.53,75.711 -30.9,53.566 -27.39,147.596 -22.39,216.226 6.57,89.88 23.58,185.42 60,268.41 53.89,122.79 181.18,218.77 292.62,292.84 24.13,-5.77 48.1,-10.75 71.45,-15.18 120.29,-22.8 240.77,-44.65 361.22,-66.55 94.38,-17.16 134.86,127.37 39.88,144.64 -92.42,16.81 -184.82,33.71 -277.19,50.84 -105.34,19.54 -212.55,36.18 -308.8,86.18 -53.85,27.98 -90.24,53.14 -93.09,113.82 -3.68,78.17 10.91,156.7 29.59,232.25 13.16,53.27 25.48,158.88 82.41,184.6 57.62,26.04 133.59,16.43 195,20.26 157.82,9.83 316.47,56.23 455.1,133.67 83.06,-17.39 169.15,-39.83 244.18,-78.7 71.67,-37.11 105.11,-75.57 127.96,-159.08 39.17,-143.14 45.43,-297.97 63.1,-444.95 11.51,-95.72 29.81,-194.03 30.14,-290.66 0.87,-258.86 -219.12,-448.69 -361.27,-641.855"
         style="fill:#231f20;fill-opacity:1;fill-rule:nonzero;stroke:none"
         id="path64"
         inkscape:export-filename="../rock.svg"
         inkscape:export-xdpi="96"
         inkscape:export-ydpi="96" />
    </g>
  </g>
</svg>
