<?xml version="1.0" encoding="UTF-8" standalone="no"?>
<!-- Created with Inkscape (http://www.inkscape.org/) -->

<svg
   version="1.1"
   id="svg48"
   width="362.52527"
   height="541.15076"
   viewBox="0 0 362.52528 541.15076"
   sodipodi:docname="rock_paper_scissors-09.eps"
   inkscape:export-filename="../scissors.svg"
   inkscape:export-xdpi="96"
   inkscape:export-ydpi="96"
   xmlns:inkscape="http://www.inkscape.org/namespaces/inkscape"
   xmlns:sodipodi="http://sodipodi.sourceforge.net/DTD/sodipodi-0.dtd"
   xmlns="http://www.w3.org/2000/svg"
   xmlns:svg="http://www.w3.org/2000/svg">
  <defs
     id="defs52" />
  <sodipodi:namedview
     id="namedview50"
     pagecolor="#ffffff"
     bordercolor="#000000"
     borderopacity="0.25"
     inkscape:showpageshadow="2"
     inkscape:pageopacity="0.0"
     inkscape:pagecheckerboard="0"
     inkscape:deskcolor="#d1d1d1"
     showgrid="false" />
  <g
     id="g56"
     inkscape:groupmode="layer"
     inkscape:label="Page 1"
     transform="matrix(1.3333333,0,0,-1.3333333,-128.4918,556.3647)">
    <g
       id="g58"
       transform="scale(0.1)">
      <path
         d="m 3575.12,2444.33 c -52.37,107.69 -119.48,212.62 -197.88,304.35 23.22,261.9 46.89,523.87 65.37,786.14 11.95,169.66 -20.16,347.74 -181.68,437.7 -153.25,85.36 -385.98,94.43 -529.42,-17.85 -33.18,120.96 -140.03,185.56 -260.89,206.01 -137.86,23.33 -295.86,21.46 -400.71,-85.38 -81.28,-82.82 -92.67,-192.94 -105.77,-302.09 -12.6,-104.98 -24.42,-210.07 -36.21,-315.14 -18.95,-168.97 -37.53,-337.97 -55.91,-507 -104.18,-19.43 -214.81,-54.39 -297.32,-116.67 -70.29,-53.05 -124.07,-126.82 -162.5,-206.35 -109.49,-18.69 -219.88,-62.05 -300.13,-138 -81.99,-77.61 -134.859,-210.68 -145.836,-322.32 -6.418,-65.28 0.411,-131.42 8.192,-196.27 13.203,-110.1 29.514,-220.42 50.194,-329.35 40.13,-211.43 105.05,-418.25 177.23,-620.71 39.15,-109.826 80.85,-218.935 126.28,-326.365 -38.28,-156.879 -66.92,-344.441 90.13,-443.656 72.48,-45.781 165.27,-71.012 247.75,-90.379 123.57,-29.012 251.57,-39.277 378.16,-43.187 187.51,-5.797 376.52,-7.067 563.22,13.32 105.75,11.547 212.06,27.176 314.57,56.203 83.92,23.758 174.64,56.418 237.98,118.973 111.24,109.855 116.56,293.289 79.44,440.16 63.64,78.472 123.82,160.445 178.16,245.371 75.88,118.61 121.68,245.6 160.6,380.11 50.4,174.18 89.14,353.84 101.77,535.03 13.2,189.47 -21.67,366.41 -104.79,537.35 z M 2794.43,3807.8 c 6.12,8.12 29.31,30.47 44.68,40.17 27.54,17.39 57.86,27.56 89.99,32.94 77.29,12.94 169.78,3.34 241.06,-30.11 127.54,-59.84 130.89,-196.82 122.17,-319.88 -10.23,-144.35 -22.63,-288.55 -34.87,-432.74 -6.7,-78.9 -13.6,-157.78 -20.47,-236.66 -53.8,28.98 -112.3,50.7 -168,68.35 -102.6,32.52 -206.13,45.33 -311.96,21.22 -6.01,-1.36 -11.89,-2.89 -17.73,-4.47 1.43,124.93 2.81,249.87 3.91,374.81 1.03,115.92 21.47,446.89 51.22,486.37 z m -695.62,-165.57 c 8.32,72.34 14.05,160.2 27.89,223.85 25.43,116.97 113.67,161.71 228.42,157.48 94.37,-3.48 214.62,-17.75 235.54,-123.72 13.36,-67.68 3.68,-447.02 2.84,-545.22 -1.38,-161.66 -3.07,-323.31 -5,-484.96 -60.76,-50.2 -103.66,-117.3 -128.48,-193.58 -34.81,45.43 -72.63,88.53 -116.07,124.62 -90.2,74.91 -204.19,129.97 -321.76,151.58 13.11,120.56 26.3,241.11 39.67,361.64 12.14,109.46 24.37,218.9 36.95,328.31 z M 1674.26,2721.9 c 76.01,50.31 176.49,75.27 267.37,89.73 5.9,-0.33 11.77,-1 17.66,-1.51 0.38,-0.03 0.67,-0.06 1,-0.08 2.73,-0.4 5.46,-0.76 8.16,-1.25 13.21,-2.4 26.4,-4.74 39.5,-7.72 59.71,-13.54 116.67,-34.7 169.59,-65.65 139.78,-81.76 229.32,-235.08 310.49,-370.44 39.63,-66.09 77.12,-133.48 112.43,-201.97 12.34,-23.94 24.44,-48.01 36.05,-72.31 4.39,-9.18 8.75,-18.36 12.93,-27.64 5.31,-11.79 6.2,-15.08 6.77,-16.83 17.68,-54.93 17.17,-118.17 -16.42,-167.38 -28.33,-41.5 -77.29,-65.55 -121.89,-80.6 -139.68,-47.12 -289.5,-18.43 -382.38,102.12 -34.67,68.59 -80.31,133.41 -122.19,196.99 -48.53,73.68 -98.45,146.53 -150.3,217.92 -83.99,115.64 -182.05,201.87 -301.34,274.66 3.09,5.42 6.09,10.88 9.32,16.2 26.83,44.16 59.74,86.96 103.25,115.76 z m -540.54,-485.94 c 1.65,4.89 3.64,9.67 5.51,14.47 0.28,0.73 0.5,1.31 0.67,1.75 0.14,0.34 0.25,0.57 0.41,0.95 4.57,10.44 9.42,20.75 14.31,31.04 11.94,25.1 23.06,52.69 40.02,74.81 41.19,53.75 108.79,84.33 171.83,103.71 26.17,8.04 52.84,14.54 79.76,19.47 0.81,0.15 1.63,0.26 2.44,0.4 64.71,-35.97 128.25,-75.23 182.88,-125.42 15.35,-14.1 29.88,-29 44.03,-44.3 5.03,-5.44 10.02,-10.93 14.93,-16.49 2.58,-2.92 4.94,-6.02 7.44,-9.02 0.53,-0.65 0.99,-1.19 1.37,-1.65 0.18,-0.23 0.33,-0.44 0.57,-0.74 89.9,-116.81 172.15,-241.01 249.9,-366.14 15.16,-24.4 32.35,-49.73 46.93,-76.13 1.8,-6.07 4.52,-11.87 8.52,-17.1 0.31,-0.41 0.64,-0.81 0.96,-1.22 19.03,-38.96 30.38,-80.19 19.75,-124.14 -16.59,-68.53 -75,-120.4 -140.15,-142.06 -87.04,-28.95 -185.39,-32.82 -275.44,-17.38 -77.15,13.21 -138.17,42.61 -202.27,86.43 -96.26,65.79 -185.05,145.2 -267.11,227.98 -2.91,18.42 -5.81,36.86 -8.46,55.36 -16.82,117.17 -31.69,227.8 1.2,325.42 z m 2313.6,-774.95 c -39.42,-144.51 -84.36,-278.19 -166.43,-404.5 -41.17,-63.373 -85.65,-124.74 -132.28,-184.213 -29.72,-37.902 -74.89,-76.695 -64.16,-129.133 19.36,-94.691 47.11,-198.406 -2.47,-292.519 -31.46,-59.723 -98.66,-86.25 -159.55,-106.348 -81.02,-26.742 -165.62,-43.133 -249.96,-55.106 -145.52,-20.652 -291.18,-24.097 -437.83,-23.523 -206.34,0.812 -414.3,1.258 -613.14,63.445 -28.77,8.996 -58.11,17.879 -85.84,29.825 -3.1,1.335 -20.3,9.636 -28.26,14.074 -5.65,3.144 -11.17,6.449 -16.6,9.941 -6.24,4.008 -7.16,4.324 -7.25,4.324 0.05,0.032 -0.07,0.434 -3.66,3.711 -3.44,3.133 -6.76,6.36 -9.98,9.727 -1.3,1.367 -2.27,2.351 -3.09,3.176 -0.09,0.132 -0.14,0.211 -0.24,0.351 -2.27,3.25 -12.23,23.199 -10.94,18.832 -11.02,29.074 -10.24,46.547 -8.83,79.637 1.47,34.355 7.33,67.93 14.33,101.543 9.62,46.234 28.97,89.637 9.55,135.406 -1.83,4.313 -2.6,6.094 -2.83,6.613 -0.7,1.68 -1.62,3.907 -2.91,7.02 -9.19,22.191 -18.28,44.422 -27.21,66.719 -103.18,257.528 -189.29,518.878 -249.41,787.758 43.31,-36.33 87.98,-70.97 134,-103.14 166.09,-116.12 373.43,-149.99 570.63,-100.59 141.11,35.34 253.69,144.46 279.99,276.57 89.68,-47.66 192.8,-64.79 303.62,-46.88 153.76,24.84 308.51,117.29 335.49,282.53 24.01,147.04 -55.42,275.87 -123.27,399.98 -32.99,60.32 -67.62,119.81 -104.22,178.04 -2.12,76.63 7.71,156.52 55.47,219.33 40.96,53.87 103.32,82.25 168.24,95.27 75.25,15.1 148.79,-0.83 220.83,-23.65 75.88,-24.03 161.35,-56.58 217.86,-114.84 1.03,-1.07 2.1,-1.97 3.16,-2.96 1.3,-1.69 2.51,-3.37 3.93,-5.07 34.48,-41.27 61.52,-76.4 92.53,-122.61 104.5,-155.7 183.41,-329.99 186.58,-520.1 3.14,-188.76 -36.4,-377.38 -85.85,-558.64"
         style="fill:#231f20;fill-opacity:1;fill-rule:nonzero;stroke:none"
         id="path60"
         inkscape:export-filename="../scissors.svg"
         inkscape:export-xdpi="96"
         inkscape:export-ydpi="96" />
    </g>
  </g>
</svg>
